<svg width="26" height="26" viewBox="0 0 26 26" fill="none" xmlns="http://www.w3.org/2000/svg">
<path d="M24.5004 0.499634H1.50037C0.947241 0.499634 0.500366 0.946509 0.500366 1.49963V24.4996C0.500366 25.0528 0.947241 25.4996 1.50037 25.4996H24.5004C25.0535 25.4996 25.5004 25.0528 25.5004 24.4996V1.49963C25.5004 0.946509 25.0535 0.499634 24.5004 0.499634ZM21.6129 7.79651H19.616C18.0504 7.79651 17.7472 8.54026 17.7472 9.63401V12.0434H21.4847L20.9972 15.8153H17.7472V25.4996H13.8504V15.8184H10.591V12.0434H13.8504V9.26213C13.8504 6.03401 15.8222 4.27463 18.7035 4.27463C20.0847 4.27463 21.2691 4.37776 21.616 4.42463V7.79651H21.6129Z" fill="white"/>
</svg>
