<svg width="70" height="69" viewBox="0 0 70 69" fill="none" xmlns="http://www.w3.org/2000/svg">
<path d="M45.5 0C52.29 0 58.065 2.39106 62.825 7.00238C67.55 11.6479 70 17.2839 70 23.9106C70 29.2392 68.25 34.0213 65.03 38.2569C61.74 42.4583 57.54 45.3276 52.395 46.7964L52.5 45.7034V44.4053C52.5 36.9248 49.805 30.5031 44.275 25.1061C38.745 19.7091 32.165 17.079 24.5 17.079H23.205L22.05 17.1815C23.555 12.1602 26.495 8.06128 30.8 4.85043C35.14 1.7079 40.04 0 45.5 0ZM24.5 20.4948C30.9978 20.4948 37.2295 23.0139 41.8241 27.498C46.4188 31.9821 49 38.0639 49 44.4053C49 50.7468 46.4188 56.8286 41.8241 61.3127C37.2295 65.7968 30.9978 68.3159 24.5 68.3159C18.0022 68.3159 11.7705 65.7968 7.17588 61.3127C2.58124 56.8286 0 50.7468 0 44.4053C0 38.0639 2.58124 31.9821 7.17588 27.498C11.7705 23.0139 18.0022 20.4948 24.5 20.4948ZM24.5 27.3264C19.8587 27.3264 15.4075 29.1258 12.1256 32.3287C8.84374 35.5316 7 39.8757 7 44.4053C7 48.935 8.84374 53.2791 12.1256 56.482C15.4075 59.6849 19.8587 61.4843 24.5 61.4843C26.7981 61.4843 29.0738 61.0426 31.197 60.1843C33.3202 59.326 35.2493 58.0679 36.8744 56.482C38.4994 54.8961 39.7884 53.0133 40.6679 50.9412C41.5473 48.8691 42 46.6482 42 44.4053C42 42.1625 41.5473 39.9416 40.6679 37.8695C39.7884 35.7974 38.4994 33.9146 36.8744 32.3287C35.2493 30.7428 33.3202 29.4847 31.197 28.6264C29.0738 27.7681 26.7981 27.3264 24.5 27.3264Z" fill="white"/>
</svg>
