<svg width="72" height="72" viewBox="0 0 72 72" fill="none" xmlns="http://www.w3.org/2000/svg">
<path d="M56.4514 8.6073C58.8043 8.6073 61.1572 8.6073 63.118 8.99946C63.9023 18.0191 63.9023 36.0583 53.3141 48.6073C45.471 58.4112 32.1376 63.5093 14.0984 63.5093H9.00036C8.21605 45.4701 11.7455 31.3524 19.9808 22.3328C29.7847 10.9602 45.471 8.6073 56.4514 8.6073ZM56.4514 0.76416C34.8827 0.76416 -4.72513 8.99945 1.54938 70.5681C5.86311 70.9603 10.1768 71.3524 14.0984 71.3524C84.2945 71.3524 70.1768 1.94063 70.1768 1.94063C70.1768 1.94063 64.6866 0.76416 56.4514 0.76416ZM55.667 16.4504C16.4513 16.4504 16.4513 55.6661 16.4513 55.6661C32.1376 24.2936 55.667 16.4504 55.667 16.4504Z" fill="white"/>
</svg>
