<svg width="26" height="26" viewBox="0 0 26 26" fill="none" xmlns="http://www.w3.org/2000/svg">
<path d="M24.5019 0.499634H1.50189C0.948767 0.499634 0.501892 0.946509 0.501892 1.49963V24.4996C0.501892 25.0528 0.948767 25.4996 1.50189 25.4996H24.5019C25.055 25.4996 25.5019 25.0528 25.5019 24.4996V1.49963C25.5019 0.946509 25.055 0.499634 24.5019 0.499634ZM7.91752 21.8028H4.20814V9.87151H7.91752V21.8028ZM6.06439 8.24026C5.63916 8.24026 5.22348 8.11416 4.86992 7.87792C4.51635 7.64167 4.24078 7.30589 4.07805 6.91303C3.91532 6.52017 3.87275 6.08787 3.9557 5.67081C4.03866 5.25376 4.24343 4.87066 4.54411 4.56998C4.8448 4.2693 5.22789 4.06453 5.64495 3.98157C6.06201 3.89861 6.4943 3.94119 6.88716 4.10392C7.28002 4.26665 7.61581 4.54222 7.85205 4.89578C8.0883 5.24935 8.21439 5.66503 8.21439 6.09026C8.21127 7.27776 7.24877 8.24026 6.06439 8.24026ZM21.805 21.8028H18.0988V15.9996C18.0988 14.6153 18.0738 12.8371 16.1706 12.8371C14.2425 12.8371 13.9456 14.3434 13.9456 15.8996V21.8028H10.2425V9.87151H13.7988V11.5028H13.8488C14.3425 10.5653 15.5519 9.57463 17.3581 9.57463C21.1144 9.57463 21.805 12.0465 21.805 15.259V21.8028Z" fill="white"/>
</svg>
