<svg width="19" height="19" viewBox="0 0 19 19" fill="none" xmlns="http://www.w3.org/2000/svg">
<path d="M11.7036 16.805C11.5361 16.9725 11.3373 17.1054 11.1184 17.1961C10.8996 17.2868 10.665 17.3335 10.4282 17.3335C10.1913 17.3335 9.95672 17.2868 9.73788 17.1961C9.51904 17.1054 9.32021 16.9725 9.15274 16.805L2.02858 9.68083C1.69037 9.3427 1.50032 8.88408 1.50024 8.40583V3.3025C1.50024 2.30833 2.30858 1.5 3.30358 1.5H8.40608C8.88358 1.5 9.34274 1.69 9.68108 2.02833L16.8052 9.1525C16.9728 9.31996 17.1057 9.5188 17.1964 9.73764C17.287 9.95648 17.3337 10.191 17.3337 10.4279C17.3337 10.6648 17.287 10.8994 17.1964 11.1182C17.1057 11.337 16.9728 11.5359 16.8052 11.7033L11.7036 16.805Z" stroke="black" stroke-width="2" stroke-linecap="round" stroke-linejoin="round"/>
<path d="M4.41687 4.41699L4.83354 4.83366" stroke="black" stroke-width="2" stroke-linecap="round"/>
</svg>
