<svg width="24" height="24" viewBox="0 0 24 24" fill="none" xmlns="http://www.w3.org/2000/svg">
<path d="M21.6774 0H9.29032V4.12371H10.8387V1.64948H21.6774C22.1419 1.64948 22.4516 1.97938 22.4516 2.47423V11.5464C22.4516 12.0412 22.1419 12.3711 21.6774 12.3711H11.6129V18.1443H7.50968L4.64516 20.5361V18.1443H2.32258C1.85806 18.1443 1.54839 17.8144 1.54839 17.3196V8.24742C1.54839 7.75258 1.85806 7.42268 2.32258 7.42268H12.3871V5.7732H2.32258C1.00645 5.7732 0 6.84536 0 8.24742V17.3196C0 18.7217 1.00645 19.7938 2.32258 19.7938H3.09677V24L7.97419 19.7938H13.1613V14.0206H21.6774C22.9935 14.0206 24 12.9485 24 11.5464V2.47423C24 1.07217 22.9935 0 21.6774 0Z" fill="white"/>
<path d="M3.25159 16.4119H5.10965L5.57417 15.0923H7.97417L8.43868 16.4119H10.2967L7.66449 9.07166H5.80643L3.25159 16.4119ZM6.73546 11.1335L7.50965 13.6902H5.96126L6.73546 11.1335Z" fill="white"/>
<path d="M13.9354 11.5464C14.787 11.5464 15.9483 11.299 17.0322 10.7217C18.1161 11.299 19.3548 11.5464 20.129 11.5464V9.89692C20.129 9.89692 19.3548 9.89692 18.5032 9.56703C19.4322 8.57734 20.129 7.0928 20.129 4.94847V4.12373H17.8064V2.47424H16.258V4.12373H13.9354V5.77321H18.5032C18.3483 7.25775 17.729 8.16497 17.0322 8.74228C16.5677 8.32991 16.1032 7.75259 15.7935 7.01033H14.1677C14.4774 8.08249 14.9419 8.90723 15.5612 9.56703C14.787 9.89692 14.0903 9.89692 13.9354 9.89692V11.5464Z" fill="white"/>
</svg>
