<svg width="104" height="45" viewBox="0 0 104 45" fill="none" xmlns="http://www.w3.org/2000/svg">
<path d="M21.9844 29.5156V35H4.80469V29.5156H21.9844ZM7.07812 0.875V35H0.046875V0.875H7.07812ZM24.5156 22.5781V22.0859C24.5156 20.2266 24.7812 18.5156 25.3125 16.9531C25.8438 15.375 26.6172 14.0078 27.6328 12.8516C28.6484 11.6953 29.8984 10.7969 31.3828 10.1562C32.8672 9.5 34.5703 9.17188 36.4922 9.17188C38.4141 9.17188 40.125 9.5 41.625 10.1562C43.125 10.7969 44.3828 11.6953 45.3984 12.8516C46.4297 14.0078 47.2109 15.375 47.7422 16.9531C48.2734 18.5156 48.5391 20.2266 48.5391 22.0859V22.5781C48.5391 24.4219 48.2734 26.1328 47.7422 27.7109C47.2109 29.2734 46.4297 30.6406 45.3984 31.8125C44.3828 32.9688 43.1328 33.8672 41.6484 34.5078C40.1641 35.1484 38.4609 35.4688 36.5391 35.4688C34.6172 35.4688 32.9062 35.1484 31.4062 34.5078C29.9219 33.8672 28.6641 32.9688 27.6328 31.8125C26.6172 30.6406 25.8438 29.2734 25.3125 27.7109C24.7812 26.1328 24.5156 24.4219 24.5156 22.5781ZM31.2656 22.0859V22.5781C31.2656 23.6406 31.3594 24.6328 31.5469 25.5547C31.7344 26.4766 32.0312 27.2891 32.4375 27.9922C32.8594 28.6797 33.4062 29.2188 34.0781 29.6094C34.75 30 35.5703 30.1953 36.5391 30.1953C37.4766 30.1953 38.2812 30 38.9531 29.6094C39.625 29.2188 40.1641 28.6797 40.5703 27.9922C40.9766 27.2891 41.2734 26.4766 41.4609 25.5547C41.6641 24.6328 41.7656 23.6406 41.7656 22.5781V22.0859C41.7656 21.0547 41.6641 20.0859 41.4609 19.1797C41.2734 18.2578 40.9688 17.4453 40.5469 16.7422C40.1406 16.0234 39.6016 15.4609 38.9297 15.0547C38.2578 14.6484 37.4453 14.4453 36.4922 14.4453C35.5391 14.4453 34.7266 14.6484 34.0547 15.0547C33.3984 15.4609 32.8594 16.0234 32.4375 16.7422C32.0312 17.4453 31.7344 18.2578 31.5469 19.1797C31.3594 20.0859 31.2656 21.0547 31.2656 22.0859ZM68.7422 9.64062H74.8594V34.1562C74.8594 36.4688 74.3438 38.4297 73.3125 40.0391C72.2969 41.6641 70.875 42.8906 69.0469 43.7188C67.2188 44.5625 65.0938 44.9844 62.6719 44.9844C61.6094 44.9844 60.4844 44.8438 59.2969 44.5625C58.125 44.2812 57 43.8438 55.9219 43.25C54.8594 42.6562 53.9688 41.9062 53.25 41L56.2266 37.0156C57.0078 37.9219 57.9141 38.625 58.9453 39.125C59.9766 39.6406 61.1172 39.8984 62.3672 39.8984C63.5859 39.8984 64.6172 39.6719 65.4609 39.2188C66.3047 38.7812 66.9531 38.1328 67.4062 37.2734C67.8594 36.4297 68.0859 35.4062 68.0859 34.2031V15.5L68.7422 9.64062ZM51.6797 22.625V22.1328C51.6797 20.1953 51.9141 18.4375 52.3828 16.8594C52.8672 15.2656 53.5469 13.8984 54.4219 12.7578C55.3125 11.6172 56.3906 10.7344 57.6562 10.1094C58.9219 9.48438 60.3516 9.17188 61.9453 9.17188C63.6328 9.17188 65.0469 9.48438 66.1875 10.1094C67.3281 10.7344 68.2656 11.625 69 12.7812C69.7344 13.9219 70.3047 15.2734 70.7109 16.8359C71.1328 18.3828 71.4609 20.0781 71.6953 21.9219V23C71.4609 24.7656 71.1094 26.4062 70.6406 27.9219C70.1719 29.4375 69.5547 30.7656 68.7891 31.9062C68.0234 33.0312 67.0703 33.9062 65.9297 34.5312C64.8047 35.1562 63.4609 35.4688 61.8984 35.4688C60.3359 35.4688 58.9219 35.1484 57.6562 34.5078C56.4062 33.8672 55.3359 32.9688 54.4453 31.8125C53.5547 30.6562 52.8672 29.2969 52.3828 27.7344C51.9141 26.1719 51.6797 24.4688 51.6797 22.625ZM58.4297 22.1328V22.625C58.4297 23.6719 58.5312 24.6484 58.7344 25.5547C58.9375 26.4609 59.25 27.2656 59.6719 27.9688C60.1094 28.6562 60.6484 29.1953 61.2891 29.5859C61.9453 29.9609 62.7188 30.1484 63.6094 30.1484C64.8438 30.1484 65.8516 29.8906 66.6328 29.375C67.4141 28.8438 68 28.1172 68.3906 27.1953C68.7812 26.2734 69.0078 25.2109 69.0703 24.0078V20.9375C69.0391 19.9531 68.9062 19.0703 68.6719 18.2891C68.4375 17.4922 68.1094 16.8125 67.6875 16.25C67.2656 15.6875 66.7188 15.25 66.0469 14.9375C65.375 14.625 64.5781 14.4688 63.6562 14.4688C62.7656 14.4688 61.9922 14.6719 61.3359 15.0781C60.6953 15.4688 60.1562 16.0078 59.7188 16.6953C59.2969 17.3828 58.9766 18.1953 58.7578 19.1328C58.5391 20.0547 58.4297 21.0547 58.4297 22.1328ZM79.0312 22.5781V22.0859C79.0312 20.2266 79.2969 18.5156 79.8281 16.9531C80.3594 15.375 81.1328 14.0078 82.1484 12.8516C83.1641 11.6953 84.4141 10.7969 85.8984 10.1562C87.3828 9.5 89.0859 9.17188 91.0078 9.17188C92.9297 9.17188 94.6406 9.5 96.1406 10.1562C97.6406 10.7969 98.8984 11.6953 99.9141 12.8516C100.945 14.0078 101.727 15.375 102.258 16.9531C102.789 18.5156 103.055 20.2266 103.055 22.0859V22.5781C103.055 24.4219 102.789 26.1328 102.258 27.7109C101.727 29.2734 100.945 30.6406 99.9141 31.8125C98.8984 32.9688 97.6484 33.8672 96.1641 34.5078C94.6797 35.1484 92.9766 35.4688 91.0547 35.4688C89.1328 35.4688 87.4219 35.1484 85.9219 34.5078C84.4375 33.8672 83.1797 32.9688 82.1484 31.8125C81.1328 30.6406 80.3594 29.2734 79.8281 27.7109C79.2969 26.1328 79.0312 24.4219 79.0312 22.5781ZM85.7812 22.0859V22.5781C85.7812 23.6406 85.875 24.6328 86.0625 25.5547C86.25 26.4766 86.5469 27.2891 86.9531 27.9922C87.375 28.6797 87.9219 29.2188 88.5938 29.6094C89.2656 30 90.0859 30.1953 91.0547 30.1953C91.9922 30.1953 92.7969 30 93.4688 29.6094C94.1406 29.2188 94.6797 28.6797 95.0859 27.9922C95.4922 27.2891 95.7891 26.4766 95.9766 25.5547C96.1797 24.6328 96.2812 23.6406 96.2812 22.5781V22.0859C96.2812 21.0547 96.1797 20.0859 95.9766 19.1797C95.7891 18.2578 95.4844 17.4453 95.0625 16.7422C94.6562 16.0234 94.1172 15.4609 93.4453 15.0547C92.7734 14.6484 91.9609 14.4453 91.0078 14.4453C90.0547 14.4453 89.2422 14.6484 88.5703 15.0547C87.9141 15.4609 87.375 16.0234 86.9531 16.7422C86.5469 17.4453 86.25 18.2578 86.0625 19.1797C85.875 20.0859 85.7812 21.0547 85.7812 22.0859Z" fill="black"/>
</svg>
