<svg width="24" height="16" viewBox="0 0 24 16" fill="none" xmlns="http://www.w3.org/2000/svg">
<path fill-rule="evenodd" clip-rule="evenodd" d="M0.625503 7.99968C0.625503 8.21517 0.711105 8.42183 0.863477 8.57421C1.01585 8.72658 1.22251 8.81218 1.438 8.81218L20.6016 8.81218L15.4878 13.9244C15.3352 14.077 15.2495 14.2839 15.2495 14.4997C15.2495 14.7154 15.3352 14.9224 15.4878 15.0749C15.6403 15.2275 15.8472 15.3132 16.063 15.3132C16.2788 15.3132 16.4857 15.2275 16.6383 15.0749L23.1383 8.57493C23.2139 8.49946 23.2739 8.4098 23.3149 8.31109C23.3559 8.21238 23.377 8.10656 23.377 7.99968C23.377 7.89281 23.3559 7.78699 23.3149 7.68828C23.2739 7.58957 23.2139 7.49991 23.1383 7.42443L16.6383 0.924433C16.5627 0.84889 16.473 0.788967 16.3743 0.748083C16.2756 0.707199 16.1698 0.686157 16.063 0.686157C15.8472 0.686157 15.6403 0.771867 15.4878 0.924433C15.3352 1.077 15.2495 1.28392 15.2495 1.49968C15.2495 1.71544 15.3352 1.92237 15.4878 2.07493L20.6016 7.18718L1.438 7.18718C1.22251 7.18718 1.01585 7.27279 0.863477 7.42516C0.711105 7.57753 0.625503 7.78419 0.625503 7.99968Z" fill="white"/>
</svg>
