<svg width="21" height="21" viewBox="0 0 21 21" fill="none" xmlns="http://www.w3.org/2000/svg">
<path fill-rule="evenodd" clip-rule="evenodd" d="M1.31279 10.4999C1.31279 10.6739 1.38193 10.8408 1.505 10.9639C1.62807 11.087 1.79499 11.1561 1.96904 11.1561L17.4474 11.1561L13.3169 15.2852C13.1937 15.4085 13.1245 15.5756 13.1245 15.7499C13.1245 15.9241 13.1937 16.0912 13.3169 16.2145C13.4401 16.3377 13.6073 16.4069 13.7815 16.4069C13.9558 16.4069 14.1229 16.3377 14.2462 16.2145L19.4962 10.9645C19.5573 10.9035 19.6058 10.8311 19.6389 10.7514C19.6719 10.6716 19.689 10.5862 19.689 10.4999C19.689 10.4135 19.6719 10.3281 19.6389 10.2483C19.6058 10.1686 19.5573 10.0962 19.4962 10.0352L14.2462 4.78523C14.1852 4.72421 14.1127 4.67581 14.033 4.64279C13.9533 4.60977 13.8678 4.59277 13.7815 4.59277C13.6073 4.59277 13.4401 4.662 13.3169 4.78523C13.1937 4.90845 13.1245 5.07558 13.1245 5.24985C13.1245 5.42412 13.1937 5.59125 13.3169 5.71448L17.4474 9.8436L1.96904 9.8436C1.79499 9.8436 1.62807 9.91274 1.505 10.0358C1.38193 10.1589 1.31279 10.3258 1.31279 10.4999Z" fill="black"/>
</svg>
