<svg width="33" height="33" viewBox="0 0 33 33" fill="none" xmlns="http://www.w3.org/2000/svg">
<path d="M31.2176 0.483887H1.75606C1.04755 0.483887 0.475128 1.05645 0.475128 1.76514V31.2339C0.475128 31.9426 1.04755 32.5151 1.75606 32.5151H31.2176C31.9261 32.5151 32.4985 31.9426 32.4985 31.2339V1.76514C32.4985 1.05645 31.9261 0.483887 31.2176 0.483887ZM27.5189 9.83301H24.961C22.9555 9.83301 22.5673 10.7859 22.5673 12.1873V15.2743H27.3548L26.7303 20.107H22.5673V32.5151H17.5756V20.111H13.4006V15.2743H17.5756V11.7108C17.5756 7.5748 20.1015 5.32061 23.7922 5.32061C25.5614 5.32061 27.0786 5.45273 27.5229 5.51279V9.83301H27.5189Z" fill="black"/>
</svg>
