<svg width="62" height="66" viewBox="0 0 62 66" fill="none" xmlns="http://www.w3.org/2000/svg">
<path d="M49.6 29.4433H39.742C38.44 25.6483 35.03 22.9003 31 22.9003C26.97 22.9003 23.56 25.6483 22.258 29.4433H12.4C11.377 29.4433 6.2 29.1161 6.2 22.9003V19.6288C6.2 13.642 10.974 13.0859 12.4 13.0859H43.958C45.26 16.8808 48.67 19.6288 52.7 19.6288C55.1665 19.6288 57.532 18.5948 59.2761 16.7543C61.0202 14.9137 62 12.4174 62 9.81442C62 7.21147 61.0202 4.71514 59.2761 2.87458C57.532 1.03402 55.1665 0 52.7 0C48.67 0 45.26 2.74804 43.958 6.54294H12.4C7.409 6.54294 0 10.0107 0 19.6288V22.9003C0 32.5184 7.409 35.9862 12.4 35.9862H22.258C23.56 39.7811 26.97 42.5291 31 42.5291C35.03 42.5291 38.44 39.7811 39.742 35.9862H49.6C50.623 35.9862 55.8 36.3133 55.8 42.5291V45.8006C55.8 51.7874 51.026 52.3436 49.6 52.3436H18.042C16.74 48.5487 13.33 45.8006 9.3 45.8006C6.83349 45.8006 4.468 46.8346 2.72391 48.6752C0.979819 50.5157 0 53.0121 0 55.615C0 58.218 0.979819 60.7143 2.72391 62.5549C4.468 64.3954 6.83349 65.4294 9.3 65.4294C13.33 65.4294 16.74 62.6814 18.042 58.8865H49.6C54.591 58.8865 62 55.386 62 45.8006V42.5291C62 32.9437 54.591 29.4433 49.6 29.4433ZM52.7 6.54294C53.5222 6.54294 54.3107 6.88762 54.892 7.50114C55.4734 8.11466 55.8 8.94677 55.8 9.81442C55.8 10.6821 55.4734 11.5142 54.892 12.1277C54.3107 12.7412 53.5222 13.0859 52.7 13.0859C51.8778 13.0859 51.0893 12.7412 50.508 12.1277C49.9266 11.5142 49.6 10.6821 49.6 9.81442C49.6 8.94677 49.9266 8.11466 50.508 7.50114C51.0893 6.88762 51.8778 6.54294 52.7 6.54294ZM9.3 58.8865C8.47783 58.8865 7.68933 58.5418 7.10797 57.9283C6.52661 57.3148 6.2 56.4827 6.2 55.615C6.2 54.7474 6.52661 53.9153 7.10797 53.3018C7.68933 52.6882 8.47783 52.3436 9.3 52.3436C10.1222 52.3436 10.9107 52.6882 11.492 53.3018C12.0734 53.9153 12.4 54.7474 12.4 55.615C12.4 56.4827 12.0734 57.3148 11.492 57.9283C10.9107 58.5418 10.1222 58.8865 9.3 58.8865Z" fill="white"/>
</svg>
