<svg width="33" height="33" viewBox="0 0 33 33" fill="none" xmlns="http://www.w3.org/2000/svg">
<path fill-rule="evenodd" clip-rule="evenodd" d="M9.4148 0.0972521C11.1211 0.0186809 11.6652 0.0012207 16.0117 0.0012207C20.3582 0.0012207 20.9023 0.020136 22.6071 0.0972521C24.312 0.174368 25.4757 0.446457 26.494 0.840768C27.5603 1.24381 28.5276 1.87383 29.3277 2.68864C30.1423 3.48745 30.7707 4.45359 31.1722 5.52157C31.5679 6.54009 31.8384 7.7041 31.917 9.40648C31.9955 11.1161 32.013 11.6603 32.013 16.0065C32.013 20.3541 31.9941 20.8982 31.917 22.605C31.8399 24.3073 31.5679 25.4714 31.1722 26.4899C30.7707 27.558 30.1413 28.5257 29.3277 29.3257C28.5276 30.1405 27.5603 30.7691 26.494 31.1707C25.4757 31.5664 24.312 31.8371 22.6101 31.9157C20.9023 31.9942 20.3582 32.0117 16.0117 32.0117C11.6652 32.0117 11.1211 31.9928 9.4148 31.9157C7.71284 31.8385 6.54911 31.5664 5.53085 31.1707C4.46301 30.769 3.49551 30.1394 2.69571 29.3257C1.88165 28.5264 1.25168 27.5592 0.84974 26.4913C0.455526 25.4728 0.184958 24.3088 0.106407 22.6064C0.0278548 20.8968 0.0103989 20.3526 0.0103989 16.0065C0.0103989 11.6588 0.0293095 11.1147 0.106407 9.40939C0.183504 7.7041 0.455526 6.54009 0.84974 5.52157C1.25228 4.4537 1.88272 3.48645 2.69716 2.68719C3.49583 1.87311 4.46236 1.243 5.52939 0.840768C6.54766 0.446457 7.71139 0.175823 9.41334 0.0972521H9.4148ZM22.4777 2.97819C20.7903 2.90108 20.284 2.88507 16.0117 2.88507C11.7394 2.88507 11.2331 2.90108 9.54572 2.97819C7.98486 3.04949 7.13825 3.30994 6.57384 3.52965C5.8276 3.82065 5.29374 4.16549 4.73369 4.72567C4.2028 5.24228 3.79424 5.87119 3.53796 6.56628C3.3183 7.13082 3.05792 7.97765 2.98664 9.53888C2.90954 11.2267 2.89354 11.7331 2.89354 16.0065C2.89354 20.2798 2.90954 20.7862 2.98664 22.474C3.05792 24.0353 3.3183 24.8821 3.53796 25.4466C3.79398 26.1407 4.20274 26.7707 4.73369 27.2872C5.2501 27.8183 5.87997 28.2272 6.57384 28.4833C7.13825 28.703 7.98486 28.9634 9.54572 29.0347C11.2331 29.1118 11.7379 29.1278 16.0117 29.1278C20.2855 29.1278 20.7903 29.1118 22.4777 29.0347C24.0385 28.9634 24.8851 28.703 25.4496 28.4833C26.1958 28.1923 26.7297 27.8474 27.2897 27.2872C27.8207 26.7707 28.2294 26.1407 28.4854 25.4466C28.7051 24.8821 28.9655 24.0353 29.0368 22.474C29.1139 20.7862 29.1299 20.2798 29.1299 16.0065C29.1299 11.7331 29.1139 11.2267 29.0368 9.53888C28.9655 7.97765 28.7051 7.13082 28.4854 6.56628C28.1945 5.81985 27.8498 5.28586 27.2897 4.72567C26.7732 4.19469 26.1445 3.78604 25.4496 3.52965C24.8851 3.30994 24.0385 3.04949 22.4777 2.97819ZM13.9679 20.9404C15.1093 21.4157 16.3803 21.4798 17.5637 21.1219C18.7472 20.764 19.7697 20.0062 20.4566 18.978C21.1435 17.9497 21.4522 16.7149 21.33 15.4843C21.2078 14.2536 20.6623 13.1036 19.7866 12.2307C19.2283 11.6726 18.5533 11.2453 17.8101 10.9796C17.067 10.7138 16.2742 10.6161 15.4887 10.6936C14.7033 10.7711 13.9448 11.0218 13.2679 11.4277C12.591 11.8336 12.0125 12.3845 11.574 13.0409C11.1355 13.6973 10.8479 14.4427 10.732 15.2236C10.6161 16.0045 10.6748 16.8013 10.9037 17.5568C11.1327 18.3123 11.5262 19.0076 12.0561 19.5927C12.5859 20.1778 13.2389 20.6381 13.9679 20.9404ZM10.196 10.1893C10.9597 9.42536 11.8664 8.81938 12.8642 8.40595C13.8621 7.99252 14.9316 7.77973 16.0117 7.77973C17.0918 7.77973 18.1613 7.99252 19.1592 8.40595C20.157 8.81938 21.0637 9.42536 21.8274 10.1893C22.5912 10.9532 23.197 11.8601 23.6103 12.8582C24.0237 13.8563 24.2364 14.9261 24.2364 16.0065C24.2364 17.0868 24.0237 18.1566 23.6103 19.1547C23.197 20.1528 22.5912 21.0597 21.8274 21.8236C20.285 23.3664 18.193 24.2332 16.0117 24.2332C13.8304 24.2332 11.7384 23.3664 10.196 21.8236C8.65352 20.2808 7.78699 18.1883 7.78699 16.0065C7.78699 13.8246 8.65352 11.7321 10.196 10.1893ZM26.0605 9.00489C26.2498 8.82631 26.4013 8.61157 26.5061 8.37337C26.6109 8.13518 26.6668 7.87837 26.6706 7.61815C26.6744 7.35794 26.626 7.09961 26.5282 6.85846C26.4304 6.61731 26.2852 6.39824 26.1012 6.21422C25.9172 6.0302 25.6982 5.88497 25.4571 5.78714C25.216 5.6893 24.9577 5.64085 24.6976 5.64464C24.4374 5.64843 24.1807 5.7044 23.9426 5.80922C23.7044 5.91405 23.4897 6.0656 23.3112 6.2549C22.964 6.62306 22.7739 7.11208 22.7813 7.61815C22.7886 8.12422 22.9929 8.60749 23.3507 8.96538C23.7085 9.32326 24.1917 9.52758 24.6976 9.53495C25.2035 9.54233 25.6924 9.35219 26.0605 9.00489Z" fill="black"/>
</svg>
