<svg width="25" height="25" viewBox="0 0 25 25" fill="none" xmlns="http://www.w3.org/2000/svg">
<path fill-rule="evenodd" clip-rule="evenodd" d="M7.34182 0.0749513C8.67391 0.0136275 9.09864 0 12.4919 0C15.8851 0 16.3099 0.0147631 17.6408 0.0749513C18.9718 0.13514 19.8803 0.347502 20.6752 0.655256C21.5076 0.969825 22.2628 1.46155 22.8874 2.0975C23.5234 2.72096 24.014 3.47502 24.3274 4.30857C24.6363 5.1035 24.8475 6.01201 24.9088 7.34069C24.9702 8.67505 24.9838 9.09977 24.9838 12.4919C24.9838 15.8851 24.969 16.3099 24.9088 17.642C24.8486 18.9706 24.6363 19.8791 24.3274 20.6741C24.0139 21.5077 23.5225 22.263 22.8874 22.8874C22.2628 23.5234 21.5076 24.014 20.6752 24.3274C19.8803 24.6363 18.9718 24.8475 17.6431 24.9088C16.3099 24.9702 15.8851 24.9838 12.4919 24.9838C9.09864 24.9838 8.67391 24.969 7.34182 24.9088C6.01314 24.8486 5.10464 24.6363 4.3097 24.3274C3.47606 24.0139 2.72076 23.5225 2.09637 22.8874C1.46085 22.2636 0.969047 21.5086 0.655256 20.6752C0.347502 19.8803 0.136275 18.9718 0.0749513 17.6431C0.0136275 16.3087 0 15.884 0 12.4919C0 9.09864 0.0147631 8.67391 0.0749513 7.34296C0.13514 6.01201 0.347502 5.1035 0.655256 4.30857C0.96951 3.47511 1.46169 2.72018 2.0975 2.09637C2.72101 1.46098 3.47555 0.969193 4.30857 0.655256C5.1035 0.347502 6.01201 0.136275 7.34069 0.0749513H7.34182ZM17.5397 2.32349C16.2224 2.2633 15.8272 2.25081 12.4919 2.25081C9.15656 2.25081 8.76136 2.2633 7.44403 2.32349C6.2255 2.37914 5.56457 2.58241 5.12395 2.75389C4.54137 2.98102 4.1246 3.25016 3.68738 3.68738C3.27293 4.09058 2.95397 4.58144 2.75389 5.12395C2.58241 5.56457 2.37914 6.2255 2.32349 7.44403C2.2633 8.76136 2.25081 9.15656 2.25081 12.4919C2.25081 15.8272 2.2633 16.2224 2.32349 17.5397C2.37914 18.7583 2.58241 19.4192 2.75389 19.8598C2.95376 20.4015 3.27288 20.8933 3.68738 21.2964C4.09053 21.7109 4.58225 22.03 5.12395 22.2299C5.56457 22.4014 6.2255 22.6046 7.44403 22.6603C8.76136 22.7205 9.15542 22.733 12.4919 22.733C15.8284 22.733 16.2224 22.7205 17.5397 22.6603C18.7583 22.6046 19.4192 22.4014 19.8598 22.2299C20.4424 22.0028 20.8592 21.7336 21.2964 21.2964C21.7109 20.8933 22.03 20.4015 22.2299 19.8598C22.4014 19.4192 22.6046 18.7583 22.6603 17.5397C22.7205 16.2224 22.733 15.8272 22.733 12.4919C22.733 9.15656 22.7205 8.76136 22.6603 7.44403C22.6046 6.2255 22.4014 5.56457 22.2299 5.12395C22.0028 4.54137 21.7336 4.1246 21.2964 3.68738C20.8932 3.27296 20.4023 2.954 19.8598 2.75389C19.4192 2.58241 18.7583 2.37914 17.5397 2.32349V2.32349ZM10.8963 16.3428C11.7874 16.7137 12.7796 16.7638 13.7035 16.4844C14.6274 16.2051 15.4257 15.6136 15.9619 14.8111C16.4982 14.0086 16.7392 13.0448 16.6438 12.0843C16.5484 11.1238 16.1225 10.2263 15.4388 9.54494C15.003 9.1094 14.4761 8.77591 13.8959 8.56847C13.3157 8.36103 12.6968 8.2848 12.0836 8.34528C11.4705 8.40576 10.8783 8.60143 10.3499 8.91822C9.82141 9.23501 9.36976 9.66502 9.02744 10.1773C8.68511 10.6896 8.46063 11.2714 8.37015 11.8809C8.27967 12.4903 8.32545 13.1123 8.50418 13.7019C8.68292 14.2916 8.99016 14.8342 9.4038 15.2909C9.81744 15.7475 10.3272 16.1068 10.8963 16.3428ZM7.95166 7.95166C8.54789 7.35542 9.25572 6.88247 10.0347 6.55979C10.8137 6.23711 11.6487 6.07103 12.4919 6.07103C13.3351 6.07103 14.17 6.23711 14.949 6.55979C15.7281 6.88247 16.4359 7.35542 17.0321 7.95166C17.6284 8.54789 18.1013 9.25572 18.424 10.0347C18.7467 10.8137 18.9128 11.6487 18.9128 12.4919C18.9128 13.3351 18.7467 14.17 18.424 14.949C18.1013 15.7281 17.6284 16.4359 17.0321 17.0321C15.828 18.2363 14.1948 18.9128 12.4919 18.9128C10.789 18.9128 9.1558 18.2363 7.95166 17.0321C6.74751 15.828 6.07103 14.1948 6.07103 12.4919C6.07103 10.789 6.74751 9.1558 7.95166 7.95166V7.95166ZM20.3368 7.02726C20.4845 6.88788 20.6028 6.72027 20.6846 6.53436C20.7665 6.34845 20.8101 6.14802 20.8131 5.94492C20.8161 5.74183 20.7782 5.54021 20.7019 5.35199C20.6255 5.16378 20.5122 4.99279 20.3685 4.84917C20.2249 4.70554 20.0539 4.5922 19.8657 4.51584C19.6775 4.43948 19.4759 4.40166 19.2728 4.40462C19.0697 4.40758 18.8693 4.45126 18.6834 4.53308C18.4974 4.61489 18.3298 4.73317 18.1905 4.88092C17.9194 5.16827 17.771 5.54994 17.7768 5.94492C17.7825 6.33991 17.942 6.71709 18.2213 6.99642C18.5006 7.27574 18.8778 7.43521 19.2728 7.44096C19.6678 7.44672 20.0495 7.29832 20.3368 7.02726V7.02726Z" fill="white"/>
</svg>
