<svg width="33" height="33" viewBox="0 0 33 33" fill="none" xmlns="http://www.w3.org/2000/svg">
<path d="M31.2282 0.483887H1.76665C1.05814 0.483887 0.485718 1.05645 0.485718 1.76514V31.2339C0.485718 31.9426 1.05814 32.5151 1.76665 32.5151H31.2282C31.9367 32.5151 32.5091 31.9426 32.5091 31.2339V1.76514C32.5091 1.05645 31.9367 0.483887 31.2282 0.483887ZM9.98465 27.7785H5.23318V12.4916H9.98465V27.7785ZM7.61092 10.4016C7.06623 10.4016 6.53377 10.24 6.08087 9.93731C5.62798 9.63463 5.27499 9.2044 5.06655 8.70105C4.8581 8.1977 4.80356 7.64382 4.90983 7.10946C5.01609 6.57511 5.27838 6.08427 5.66354 5.69902C6.0487 5.31377 6.53941 5.05141 7.07364 4.94512C7.60786 4.83883 8.1616 4.89338 8.66483 5.10188C9.16806 5.31037 9.59818 5.66345 9.90079 6.11645C10.2034 6.56946 10.3649 7.10205 10.3649 7.64688C10.3609 9.16836 9.12803 10.4016 7.61092 10.4016ZM27.7736 27.7785H23.0262V20.3433C23.0262 18.5695 22.9942 16.2913 20.5564 16.2913C18.0866 16.2913 17.7063 18.2212 17.7063 20.2151V27.7785H12.9628V12.4916H17.5182V14.5816H17.5822C18.2147 13.3805 19.7638 12.1112 22.0775 12.1112C26.889 12.1112 27.7736 15.2783 27.7736 19.3943V27.7785Z" fill="black"/>
</svg>
